<svg width="28" height="28" viewBox="0 0 28 28" xmlns="http://www.w3.org/2000/svg">
<g clip-path="url(#clip0_1_352)">
<path d="M0.320796 14.7742C0.321124 14.7745 0.321396 14.7749 0.32178 14.7753L6.03684 20.4628C6.46499 20.8888 7.1575 20.8872 7.58368 20.459C8.0098 20.0309 8.00816 19.3384 7.58001 18.9123L3.74292 15.0938L26.9063 15.0938C27.5103 15.0938 28 14.6041 28 14C28 13.3959 27.5103 12.9063 26.9063 12.9063L3.74298 12.9063L7.57996 9.08775C8.00811 8.66163 8.00975 7.96912 7.58363 7.54097C7.15745 7.11272 6.46488 7.11124 6.03679 7.53726L0.321725 13.2248C0.321397 13.2251 0.321124 13.2255 0.32074 13.2258C-0.107627 13.6533 -0.10626 14.3481 0.320796 14.7742Z"/>
</g>
<defs>
<clipPath id="clip0_1_352">
<rect width="28" height="28" transform="translate(28 28) rotate(-180)"/>
</clipPath>
</defs>
</svg>
