<svg viewBox="0 0 95 107" fill="none" xmlns="http://www.w3.org/2000/svg">
<circle cx="47.5" cy="59.5" r="47.5" fill="url(#paint0_linear_1_258)"/>
<g clip-path="url(#clip0_1_258)">
<path d="M46.9999 18.6669C42.5815 18.6669 38.9999 22.2485 38.9999 26.6669C39.0042 31.0833 42.5834 34.6625 46.9999 34.6668C51.4182 34.6668 54.9998 31.0852 54.9998 26.6669C54.9998 22.2485 51.4182 18.6669 46.9999 18.6669ZM46.9999 32.0002C44.0544 32.0002 41.6665 29.6124 41.6665 26.6669C41.6665 23.7214 44.0544 21.3335 46.9999 21.3335C49.9454 21.3335 52.3332 23.7214 52.3332 26.6669C52.3332 29.6124 49.9455 32.0002 46.9999 32.0002Z" fill="white"/>
<path d="M61.2939 38.2004C60.8537 37.7596 60.3897 37.3433 59.9039 36.9533L59.9172 36.9146C64.3122 23.3521 59.3959 8.50649 47.7746 0.248002C47.3111 -0.0828302 46.6887 -0.0828302 46.2252 0.248002C34.6039 8.50649 29.6876 23.3521 34.0826 36.9146L34.0959 36.9533C26.764 42.8389 25.5913 53.5539 31.4768 60.8859C31.8668 61.3717 32.2831 61.8357 32.7239 62.2759C32.9739 62.5259 33.3129 62.6665 33.6666 62.6665C33.8098 62.6664 33.9519 62.6434 34.0879 62.5985C34.5671 62.439 34.9149 62.0225 34.9866 61.5225L35.9933 54.4772C36.0874 53.8211 36.6491 53.3337 37.3119 53.3332H41.3733L40.3599 58.3999C40.2126 59.1214 40.6781 59.8257 41.3996 59.9729C41.4874 59.9909 41.5769 59.9999 41.6666 59.9999H52.3332C53.0696 60 53.6667 59.4032 53.6669 58.6669C53.6669 58.5772 53.6579 58.4877 53.6399 58.3999L52.6266 53.3332H56.6879C57.3511 53.3339 57.9131 53.8219 58.0066 54.4786L59.0132 61.5225C59.0849 62.0225 59.4327 62.439 59.9119 62.5985C60.0479 62.6434 60.1901 62.6664 60.3332 62.6665C60.6869 62.6665 61.0259 62.5259 61.2759 62.2759C67.9292 55.6327 67.9372 44.8537 61.2939 38.2004ZM46.9999 2.99083C50.2044 5.43549 52.8851 8.49932 54.8826 12.0001H39.1173C41.1148 8.49932 43.7954 5.43549 46.9999 2.99083ZM37.3119 50.6667C35.3246 50.6752 33.6421 52.1352 33.3533 54.1014L32.7759 58.1454C30.9946 55.4559 30.1729 52.2439 30.4439 49.0294H30.4426C30.7361 45.4577 32.3528 42.1244 34.9759 39.6828L38.5039 50.6667H37.3119ZM43.2933 57.3334L44.0933 53.3334H49.9066L50.7066 57.3334H43.2933ZM41.3053 50.6667L36.9159 37.0108L36.6226 36.0974C34.3494 29.0563 34.7601 21.4233 37.7759 14.6668H56.2239C59.2397 21.4233 59.6506 29.0563 57.3772 36.0974L57.0839 37.0108L52.6946 50.6667H41.3053ZM61.2239 58.1454L60.6466 54.1014C60.3577 52.1352 58.6752 50.6752 56.6879 50.6667H55.4959L59.0266 39.6828C61.6482 42.1251 63.2635 45.4582 63.5559 49.0294C63.827 52.2439 63.0054 55.4559 61.2239 58.1454Z" fill="white"/>
<path d="M41.6666 62.56V66.9067C38.4288 65.9184 34.9099 66.7787 32.4933 69.1493C30.4673 66.7385 27.4823 65.3427 24.3333 65.3334C23.3625 65.3334 22.3965 65.468 21.4626 65.7334C20.386 59.3275 14.829 54.6435 8.33333 54.6667H7V57.3334H8.33333C13.7838 57.3165 18.3596 61.434 18.916 66.856C17.6201 67.6107 16.4975 68.6297 15.6213 69.8467C13.2182 67.7935 10.1608 66.6657 7 66.6667V69.3333C12.8883 69.34 17.66 74.1117 17.6666 80H20.3333C20.3348 77.0465 19.3493 74.1772 17.5333 71.848C18.3248 70.5365 19.4748 69.4788 20.848 68.8C20.8613 68.8 20.876 68.8 20.8893 68.7867C21.9633 68.2682 23.1406 67.9993 24.3333 68C26.9175 68.012 29.3373 69.2688 30.8333 71.376C30.0756 72.8002 29.6753 74.387 29.6666 76H32.3333C32.3321 74.6368 32.7173 73.3013 33.4439 72.148H33.4359C33.4546 72.1227 33.4799 72.104 33.4986 72.0773C35.3004 69.4293 38.7349 68.4438 41.6666 69.7333V73.2267H44.3333V62.56H41.6666Z" fill="white"/>
<path d="M85.6665 57.3334H86.9999V54.6667H85.6665C79.1709 54.6435 73.6139 59.3275 72.5372 65.7334C71.6034 65.468 70.6374 65.3334 69.6666 65.3334C66.5183 65.3417 63.5333 66.736 61.5066 69.1453C59.0899 66.7747 55.5711 65.9144 52.3333 66.9027V62.556H49.6666V73.2227H52.3333V69.7333C55.2648 68.4435 58.6991 69.4285 60.5013 72.076C60.5199 72.1027 60.5453 72.1213 60.5639 72.1467H60.5559C61.2829 73.3003 61.6679 74.6363 61.6666 76H64.3333C64.3246 74.387 63.9243 72.8002 63.1666 71.376C64.6626 69.2688 67.0824 68.012 69.6666 68C70.8594 68.0002 72.0367 68.27 73.1106 68.7893C73.1239 68.796 73.1386 68.7973 73.1519 68.8027C74.5271 69.4798 75.6796 70.5365 76.4732 71.848C74.6547 74.1763 73.6669 77.0457 73.6666 80H76.3332C76.3399 74.1117 81.1116 69.34 86.9999 69.3333V66.6667C83.8391 66.666 80.7819 67.7937 78.3786 69.8467C77.5024 68.6297 76.3797 67.6107 75.0839 66.856C75.6404 61.4339 80.2161 57.3165 85.6665 57.3334Z" fill="white"/>
</g>
<defs>
<linearGradient id="paint0_linear_1_258" x1="-16" y1="-1.5" x2="47.5" y2="107" gradientUnits="userSpaceOnUse">
<stop stop-color="#4A00E0"/>
<stop offset="1" stop-color="#1C2056"/>
</linearGradient>
<clipPath id="clip0_1_258">
<rect width="80" height="80" fill="white" transform="translate(7)"/>
</clipPath>
</defs>
</svg>
